<svg xmlns="http://www.w3.org/2000/svg" width="69.75" height="69.75" viewBox="0 0 69.75 69.75">
  <path id="Icon_awesome-arrow-circle-down" data-name="Icon awesome-arrow-circle-down" d="M70.875,36A34.875,34.875,0,1,1,36,1.125,34.869,34.869,0,0,1,70.875,36ZM50.681,31.936,40.5,42.553V16.875A3.367,3.367,0,0,0,37.125,13.5h-2.25A3.367,3.367,0,0,0,31.5,16.875V42.553L21.319,31.936A3.379,3.379,0,0,0,16.5,31.88l-1.533,1.547a3.361,3.361,0,0,0,0,4.767L33.609,56.855a3.361,3.361,0,0,0,4.767,0L57.038,38.194a3.361,3.361,0,0,0,0-4.767L55.5,31.88a3.379,3.379,0,0,0-4.823.056Z" fill="#fff" transform="translate(-1.125 -1.125)"/>
</svg>
