<svg xmlns="http://www.w3.org/2000/svg" width="69.75" height="69.75" viewBox="0 0 69.75 69.75">
  <path id="Icon_awesome-arrow-circle-up" data-name="Icon awesome-arrow-circle-up" d="M1.125,36A34.875,34.875,0,1,1,36,70.875,34.869,34.869,0,0,1,1.125,36Zm20.194,4.064L31.5,29.447V55.125A3.367,3.367,0,0,0,34.875,58.5h2.25A3.367,3.367,0,0,0,40.5,55.125V29.447L50.681,40.064a3.379,3.379,0,0,0,4.823.056l1.533-1.547a3.361,3.361,0,0,0,0-4.767L38.391,15.145a3.361,3.361,0,0,0-4.767,0L14.948,33.806a3.361,3.361,0,0,0,0,4.767l1.533,1.547A3.4,3.4,0,0,0,21.319,40.064Z" fill="#fff" transform="translate(-1.125 -1.125)"/>
</svg>

